PathFileType	4	(X/Y/Z)	E-squat_0-154.trc
DataRate	CameraRate	NumFrames	NumMarkers	Units	OrigDataRate	OrigDataStartFrame	OrigNumFrames
30	30	7	22	m	30	96	154
Frame#	Time	Hip			RHip			RKnee			RAnkle			RBigToe			RSmallToe			RHeel			LHip			LKnee			LAnkle			LBigToe			LSmallToe			LHeel			Neck			Head			Nose			RShoulder			RElbow			RWrist			LShoulder			LElbow			LWrist			
		X1	Y1	Z1	X2	Y2	Z2	X3	Y3	Z3	X4	Y4	Z4	X5	Y5	Z5	X6	Y6	Z6	X7	Y7	Z7	X8	Y8	Z8	X9	Y9	Z9	X10	Y10	Z10	X11	Y11	Z11	X12	Y12	Z12	X13	Y13	Z13	X14	Y14	Z14	X15	Y15	Z15	X16	Y16	Z16	X17	Y17	Z17	X18	Y18	Z18	X19	Y19	Z19	X20	Y20	Z20	X21	Y21	Z21	X22	Y22	Z22	
96	3.2	0.6842633788419195	0.1840237674953083	0.1953677659986005	0.5854525906070138	0.13626699403611559	0.1652651015743722	0.5863190922772127	0.1548815982474384	-0.23214188224799878	0.5695137550989531	0.1651307069459347	-0.6210387217551414	0.7093932223796475	0.0381274970520934	-0.7003496602810387	0.6360818007262271	0.029004297513905285	-0.7079078132163494	0.5603013838645697	0.198972953511506	-0.6951043159078971	0.7691212028080763	0.23049205062070507	0.17368872296709714	0.7711699345689195	0.2984490020565048	-0.23722208598226918	0.780981467257086	0.33330441959349233	-0.6170541303325625	0.885349301102501	0.1967479085415219	-0.689046879596001	0.9208512123641303	0.2491241971163608	-0.6802094652666204	0.7571653874817363	0.340707412697298	-0.6734253880633041	0.6759169105078048	0.129300072291199	0.7926125264979688	0.6825938855328881	0.09112281793932074	1.0252366021012573	0.7424833274826601	0.036010344945604816	0.8799840482816196	0.5328462406348441	0.07279726916995921	0.6957079044110976	0.4932113063124306	0.0842105662815849	0.4108185729287802	0.5047394774183694	0.034502812422555665	0.15813634132946258	0.8125275482238391	0.2193610013977144	0.72620967931738	0.8478721173212685	0.27806051365219103	0.43828200383006183	0.9239947679186175	0.26127765749589915	0.19902122139707493
97	3.2333333333333334	0.6877581833455507	0.18015212235168523	0.19563850969414462	0.5924784345037583	0.12896183966478322	0.16524206755451995	0.5890459539769936	0.15132075929719205	-0.23626197873311316	0.572539444661671	0.16182050973052065	-0.6208106998018239	0.710277179124695	0.030747386234333464	-0.6969878723813051	0.6370451095083726	0.02881071125597093	-0.7061182650643655	0.5596516320719312	0.1996380190645443	-0.6958875978642414	0.7728700881351913	0.22637761271260323	0.1734804057260457	0.770892958868122	0.2988280964327132	-0.23912673684230795	0.7808208852094147	0.33387684779094545	-0.6174866045696893	0.8887647025196765	0.19948843050258191	-0.6929530705271966	0.9240296702801141	0.24440721305338547	-0.6825370131420211	0.7500571826442947	0.35833300487692016	-0.6770730812608439	0.6688103318319502	0.13703936425879884	0.7988029695700392	0.6725052105357114	0.1025717265478647	1.028273586958123	0.7361831347623923	0.03610325073662969	0.8802015447677505	0.5320030805639172	0.07272712618465642	0.6979348299225262	0.4961585802130555	0.08085985655538523	0.41165132206051935	0.5157447516102457	0.031192680041255427	0.15871661498089584	0.8087401757625183	0.22334786277323757	0.7292720547289534	0.8515087011651487	0.27355948023147075	0.439458909993498	0.9281525066993329	0.2566397932003947	0.19579481030802526
98	3.2666666666666666	0.6891030124420251	0.18277153212228237	0.19187485530996903	0.5935380283173648	0.13150862359126395	0.16471461802231374	0.5902455925906306	0.15401701377029994	-0.2354046035555118	0.5736983637835023	0.1646219262553409	-0.6211427457169405	0.7107285361050634	0.032573463702223325	-0.6948847688219673	0.6407213778041247	0.027188477066082167	-0.7030142361423315	0.564189846514719	0.19873111852262162	-0.6956897037674636	0.7741502853202645	0.22891004675654297	0.17302830103718236	0.7683909591645535	0.29813888367249197	-0.23792485340010358	0.7815731472593616	0.3369191924469791	-0.6201785075165199	0.8876192551257063	0.19882483385837146	-0.6894116681630906	0.9223683775480721	0.2513348760148735	-0.6834979366308522	0.7434101581384605	0.3621917309007106	-0.6806435951571087	0.6694186614934177	0.13928463443857522	0.7971837658419731	0.6718983986685633	0.10441013133125497	1.0247985105542405	0.7330802735928887	0.04163465701387677	0.884629067998951	0.5374297503703075	0.07169808259342647	0.6956200226755849	0.5008461535776041	0.07982854702598319	0.4115062430087142	0.5205399333994963	0.0300590254632094	0.15815152610406916	0.8062446369203208	0.23009675488588954	0.7276806333061353	0.8492580579992585	0.27282529478201756	0.4389017017287379	0.9260048415295171	0.2558191065303252	0.19502319548007307
99	3.3	0.6907414304729321	0.18059492578784053	0.19854472201138512	0.6000630613392562	0.13364309999096824	0.1662497050547227	0.5936439084894232	0.15270571705511277	-0.2364327493105321	0.569525525252551	0.16328137844099885	-0.6227369163233855	0.7095668309201812	0.03550540191783316	-0.6963370328415784	0.6329677598622742	0.03036576317386962	-0.7049764567598953	0.5600354751503612	0.19719333800923797	-0.696635218553507	0.7827845731793499	0.2254665991450174	0.17454848610276558	0.773553326382379	0.2986555004162484	-0.23637694965411868	0.7835115854823131	0.3336398256888908	-0.6189583546833393	0.8881448541865091	0.1962044979408492	-0.6850019945975777	0.9225982113957966	0.24822139108573552	-0.6791862046469209	0.7554563793601459	0.3532958772873665	-0.6754429157972652	0.6756959028038078	0.14096057009859406	0.7971677579256318	0.664418764748555	0.11486711424057894	1.0247093157364011	0.7304055030601304	0.044128164514410546	0.8840858570052021	0.5296993978710123	0.0745191823294547	0.6935295791505082	0.5013156413835854	0.0827312370440906	0.4035409302990086	0.5275074118673604	0.026103791958813266	0.1568965194717532	0.8108843000898595	0.22310016886381256	0.7243319195240667	0.8571804737043027	0.26855928106322324	0.4356570257183071	0.9265132066106763	0.25281884455874415	0.19036739973312
100	3.3333333333333335	0.6909005492057821	0.17700320754736554	0.19657020590552235	0.5972958697260513	0.1275438598183313	0.1738238612374708	0.59000967035749	0.15337127506347456	-0.22910607550355003	0.5678216564224956	0.16604739781959033	-0.620067828354683	0.7062129288339969	0.035734903257387	-0.698540313276085	0.6344109652786383	0.02733813868517662	-0.7086486021711801	0.5580140455181907	0.1999557730072739	-0.6926153050383449	0.7844862621885571	0.21602986902505195	0.18218125072713326	0.7723414768524868	0.29429576015434566	-0.23090998345714253	0.7847569488496591	0.33016395364240664	-0.6219927246174524	0.8897794952173401	0.20038354842386671	-0.6910850211451746	0.9202279680408251	0.24894540194967565	-0.684813088951834	0.7555098300291654	0.34866852593348	-0.6720505640044596	0.6718218378761174	0.14109463122711052	0.7984399022560024	0.6606067756560116	0.11432145997938381	1.0280409415343301	0.728568936639125	0.046532257309822335	0.8907636617292076	0.534133339474114	0.06844577887518358	0.6928363711853925	0.5043173206285019	0.08241374572169219	0.41335297131572696	0.5330980925857987	0.027907956720857562	0.16463199862334185	0.8165626204322927	0.21695949029881195	0.7271573336015392	0.8614844660294027	0.26135077033532483	0.4426158471349847	0.9323704341216528	0.2395540373573578	0.195941588873379
101	3.3666666666666667	0.6951725756421626	0.17723349120410034	0.19529929918121	0.6038766160148176	0.12998101318568553	0.16583992889866256	0.5899079060408772	0.15643346606700737	-0.23315813554210726	0.5727364344567556	0.16677028040414957	-0.6231767642863301	0.7089928762959765	0.03548350223949973	-0.6967063719492704	0.6355092652048846	0.026484054636199017	-0.7042737593321142	0.5641053948180815	0.200948791704822	-0.6946086650339406	0.7800639821102038	0.22308428041502643	0.17397868988161982	0.7709862241844869	0.29623622832987967	-0.23784882107758823	0.784352841738161	0.3348772927097621	-0.6184236505167572	0.8863980521077305	0.20183953682135877	-0.6886842937113914	0.9211058869864328	0.2542377789665814	-0.6829711227260691	0.754044271388807	0.3509233959345176	-0.6750408911377762	0.671755581299961	0.1379101248643223	0.7955508116277336	0.6605516436165931	0.1190323451384809	1.0250082926146378	0.7259773221125307	0.04121520412886189	0.8878604808434961	0.5357039888351641	0.07393151026392723	0.6973000436890313	0.5075917652490407	0.0822569092890018	0.4116765001711227	0.5307790820436981	0.029195656390129568	0.16173564178528754	0.8111487183354077	0.22400906713481572	0.7285045451817631	0.858099946138739	0.26217823104160365	0.44025519150896075	0.9273172033698573	0.24645348509075088	0.20204037250405743
102	3.4	0.6971398470487453	0.17537339553624254	0.19050150303202024	0.6029996525175818	0.1326037258673283	0.15912739095719886	0.5928813535312748	0.15539698516552125	-0.23550575594209613	0.567939733979228	0.16577074839828898	-0.6190528014423523	0.7107559771404125	0.041068827554763675	-0.6958627326264504	0.6387521907131771	0.03275530363593619	-0.7061002022775714	0.5594615024534948	0.2000168402280967	-0.6955254796975822	0.7853486491527248	0.223919756201591	0.1701762352688223	0.7720294611024926	0.2934958280802712	-0.23748574311142173	0.7817925022331045	0.3362936528505466	-0.6147272676532477	0.886557455521462	0.19876244862966486	-0.6867739450058491	0.9216887354873398	0.2509388762928588	-0.6778166173077045	0.7517003310888544	0.3524669726915855	-0.6770235888946429	0.674243281118478	0.14346483383423708	0.7926997134153684	0.6631874558859386	0.11732371183428857	1.0279935428919378	0.7210919130951335	0.04018086192105755	0.8888080935241989	0.5389733545765347	0.07318434584730163	0.6941251935788194	0.5032612043724504	0.08162805063208131	0.40667967664655175	0.53402720372967	0.028739488870003247	0.1604939977716483	0.8126995042420034	0.22133088913386006	0.7242196038734322	0.8591195594306972	0.25904460049116157	0.4352361902526253	0.9318830240448323	0.23877067107106748	0.1934338089306582
